<svg xmlns="http://www.w3.org/2000/svg" xmlns:xlink="http://www.w3.org/1999/xlink" contentStyleType="text/css" data-diagram-type="CLASS" height="1258px" preserveAspectRatio="none" style="width:604px;height:1258px;background:#FFFFFF;" version="1.1" viewBox="0 0 604 1258" width="604px" zoomAndPan="magnify"><defs/><g><!--class Config--><g class="entity" data-entity="Config" data-source-line="2" data-uid="ent0002" id="entity_Config"><rect fill="#F1F1F1" height="394.2539" rx="2.5" ry="2.5" style="stroke:#181818;stroke-width:0.5;" width="192.2295" x="7" y="7"/><ellipse cx="76.4155" cy="23" fill="#ADD1B2" rx="11" ry="11" style="stroke:#181818;stroke-width:1;"/><path d="M78.8887,29.1431 Q78.3076,29.4419 77.6685,29.5913 Q77.0293,29.7407 76.3237,29.7407 Q73.8169,29.7407 72.4971,28.0889 Q71.1772,26.437 71.1772,23.3159 Q71.1772,20.1865 72.4971,18.5347 Q73.8169,16.8828 76.3237,16.8828 Q77.0293,16.8828 77.6768,17.0322 Q78.3242,17.1816 78.8887,17.4805 L78.8887,20.2031 Q78.2578,19.6221 77.6643,19.3523 Q77.0708,19.0825 76.4399,19.0825 Q75.0952,19.0825 74.4104,20.1492 Q73.7256,21.2158 73.7256,23.3159 Q73.7256,25.4077 74.4104,26.4744 Q75.0952,27.541 76.4399,27.541 Q77.0708,27.541 77.6643,27.2712 Q78.2578,27.0015 78.8887,26.4204 Z " fill="#000000"/><text fill="#000000" font-family="sans-serif" font-size="14" lengthAdjust="spacing" textLength="44.8984" x="96.9155" y="28.291">Config</text><line style="stroke:#181818;stroke-width:0.5;" x1="8" x2="198.2295" y1="39" y2="39"/><ellipse cx="18" cy="52.7441" fill="none" rx="3" ry="3" style="stroke:#038048;stroke-width:1;"/><text fill="#000000" font-family="sans-serif" font-size="14" lengthAdjust="spacing" textLength="26.4824" x="27" y="56.5352">tool</text><ellipse cx="18" cy="69.2324" fill="none" rx="3" ry="3" style="stroke:#038048;stroke-width:1;"/><text fill="#000000" font-family="sans-serif" font-size="14" lengthAdjust="spacing" textLength="42.3828" x="27" y="73.0234">config</text><ellipse cx="18" cy="85.7207" fill="none" rx="3" ry="3" style="stroke:#038048;stroke-width:1;"/><text fill="#000000" font-family="sans-serif" font-size="14" lengthAdjust="spacing" textLength="112.8066" x="27" y="89.5117">raw_schemas_all</text><ellipse cx="18" cy="102.209" fill="none" rx="3" ry="3" style="stroke:#038048;stroke-width:1;"/><text fill="#000000" font-family="sans-serif" font-size="14" lengthAdjust="spacing" textLength="113.9688" x="27" y="106">tidy_schemas_all</text><line style="stroke:#181818;stroke-width:0.5;" x1="8" x2="198.2295" y1="112.9531" y2="112.9531"/><ellipse cx="18" cy="134.9414" fill="#84BE84" rx="3" ry="3" style="stroke:#038048;stroke-width:1;"/><text fill="#000000" font-family="sans-serif" font-size="14" lengthAdjust="spacing" textLength="93.1807" x="27" y="130.4883">initialize(tool,</text><text fill="#000000" font-family="sans-serif" font-size="14" lengthAdjust="spacing" textLength="30.2764" x="35.8594" y="146.9766">pkg)</text><ellipse cx="18" cy="159.6738" fill="#84BE84" rx="3" ry="3" style="stroke:#038048;stroke-width:1;"/><text fill="#000000" font-family="sans-serif" font-size="14" lengthAdjust="spacing" textLength="54.9063" x="27" y="163.4648">print(...)</text><ellipse cx="18" cy="176.1621" fill="#84BE84" rx="3" ry="3" style="stroke:#038048;stroke-width:1;"/><text fill="#000000" font-family="sans-serif" font-size="14" lengthAdjust="spacing" textLength="64.9004" x="27" y="179.9531">read(pkg)</text><ellipse cx="18" cy="192.6504" fill="#84BE84" rx="3" ry="3" style="stroke:#038048;stroke-width:1;"/><text fill="#000000" font-family="sans-serif" font-size="14" lengthAdjust="spacing" textLength="125.4873" x="27" y="196.4414">get_raw_patterns()</text><ellipse cx="18" cy="209.1387" fill="#84BE84" rx="3" ry="3" style="stroke:#038048;stroke-width:1;"/><text fill="#000000" font-family="sans-serif" font-size="14" lengthAdjust="spacing" textLength="125.501" x="27" y="212.9297">get_raw_versions()</text><ellipse cx="18" cy="225.627" fill="#84BE84" rx="3" ry="3" style="stroke:#038048;stroke-width:1;"/><text fill="#000000" font-family="sans-serif" font-size="14" lengthAdjust="spacing" textLength="152.332" x="27" y="229.418">get_raw_descriptions()</text><ellipse cx="18" cy="242.1152" fill="#84BE84" rx="3" ry="3" style="stroke:#038048;stroke-width:1;"/><text fill="#000000" font-family="sans-serif" font-size="14" lengthAdjust="spacing" textLength="150.6777" x="27" y="245.9063">get_raw_schemas_all()</text><ellipse cx="18" cy="266.8477" fill="#84BE84" rx="3" ry="3" style="stroke:#038048;stroke-width:1;"/><text fill="#000000" font-family="sans-serif" font-size="14" lengthAdjust="spacing" textLength="129.1787" x="27" y="262.3945">get_raw_schema(x,</text><text fill="#000000" font-family="sans-serif" font-size="14" lengthAdjust="spacing" textLength="11.7988" x="35.8594" y="278.8828">v)</text><ellipse cx="18" cy="291.5801" fill="#84BE84" rx="3" ry="3" style="stroke:#038048;stroke-width:1;"/><text fill="#000000" font-family="sans-serif" font-size="14" lengthAdjust="spacing" textLength="166.2295" x="27" y="295.3711">are_raw_schemas_valid()</text><ellipse cx="18" cy="308.0684" fill="#84BE84" rx="3" ry="3" style="stroke:#038048;stroke-width:1;"/><text fill="#000000" font-family="sans-serif" font-size="14" lengthAdjust="spacing" textLength="153.4941" x="27" y="311.8594">get_tidy_descriptions()</text><ellipse cx="18" cy="324.5566" fill="#84BE84" rx="3" ry="3" style="stroke:#038048;stroke-width:1;"/><text fill="#000000" font-family="sans-serif" font-size="14" lengthAdjust="spacing" textLength="151.8398" x="27" y="328.3477">get_tidy_schemas_all()</text><ellipse cx="18" cy="357.5332" fill="#84BE84" rx="3" ry="3" style="stroke:#038048;stroke-width:1;"/><text fill="#000000" font-family="sans-serif" font-size="14" lengthAdjust="spacing" textLength="130.3408" x="27" y="344.8359">get_tidy_schema(x,</text><text fill="#000000" font-family="sans-serif" font-size="14" lengthAdjust="spacing" textLength="11.6758" x="35.8594" y="361.3242">v,</text><text fill="#000000" font-family="sans-serif" font-size="14" lengthAdjust="spacing" textLength="47.2842" x="35.8594" y="377.8125">subtbl)</text><ellipse cx="18" cy="390.5098" fill="#84BE84" rx="3" ry="3" style="stroke:#038048;stroke-width:1;"/><text fill="#000000" font-family="sans-serif" font-size="14" lengthAdjust="spacing" textLength="78.6338" x="27" y="394.3008">clone(deep)</text></g><!--class Tool--><g class="entity" data-entity="Tool" data-source-line="22" data-uid="ent0003" id="entity_Tool"><rect fill="#F1F1F1" height="789.9727" rx="2.5" ry="2.5" style="stroke:#181818;stroke-width:0.5;" width="170.5664" x="213.83" y="461.26"/><ellipse cx="279.8139" cy="477.26" fill="#ADD1B2" rx="11" ry="11" style="stroke:#181818;stroke-width:1;"/><path d="M282.287,483.4031 Q281.706,483.7019 281.0668,483.8513 Q280.4277,484.0007 279.7221,484.0007 Q277.2153,484.0007 275.8954,482.3489 Q274.5756,480.697 274.5756,477.5759 Q274.5756,474.4465 275.8954,472.7947 Q277.2153,471.1428 279.7221,471.1428 Q280.4277,471.1428 281.0751,471.2922 Q281.7226,471.4416 282.287,471.7405 L282.287,474.4631 Q281.6562,473.8821 281.0627,473.6123 Q280.4692,473.3425 279.8383,473.3425 Q278.4936,473.3425 277.8088,474.4092 Q277.1239,475.4758 277.1239,477.5759 Q277.1239,479.6677 277.8088,480.7344 Q278.4936,481.801 279.8383,481.801 Q280.4692,481.801 281.0627,481.5312 Q281.6562,481.2615 282.287,480.6804 Z " fill="#000000"/><text fill="#000000" font-family="sans-serif" font-size="14" lengthAdjust="spacing" textLength="30.0986" x="300.3139" y="482.551">Tool</text><line style="stroke:#181818;stroke-width:0.5;" x1="214.83" x2="383.3964" y1="493.26" y2="493.26"/><rect fill="none" height="6" style="stroke:#C82930;stroke-width:1;" width="6" x="221.83" y="504.0041"/><text fill="#000000" font-family="sans-serif" font-size="14" lengthAdjust="spacing" textLength="94.1104" x="233.83" y="510.7952">needs_tidying</text><ellipse cx="224.83" cy="523.4924" fill="none" rx="3" ry="3" style="stroke:#038048;stroke-width:1;"/><text fill="#000000" font-family="sans-serif" font-size="14" lengthAdjust="spacing" textLength="37.29" x="233.83" y="527.2834">name</text><ellipse cx="224.83" cy="539.9807" fill="none" rx="3" ry="3" style="stroke:#038048;stroke-width:1;"/><text fill="#000000" font-family="sans-serif" font-size="14" lengthAdjust="spacing" textLength="30.4678" x="233.83" y="543.7717">path</text><ellipse cx="224.83" cy="556.469" fill="none" rx="3" ry="3" style="stroke:#038048;stroke-width:1;"/><text fill="#000000" font-family="sans-serif" font-size="14" lengthAdjust="spacing" textLength="42.3828" x="233.83" y="560.26">config</text><ellipse cx="224.83" cy="572.9573" fill="none" rx="3" ry="3" style="stroke:#038048;stroke-width:1;"/><text fill="#000000" font-family="sans-serif" font-size="14" lengthAdjust="spacing" textLength="28.1777" x="233.83" y="576.7483">files</text><ellipse cx="224.83" cy="589.4455" fill="none" rx="3" ry="3" style="stroke:#038048;stroke-width:1;"/><text fill="#000000" font-family="sans-serif" font-size="14" lengthAdjust="spacing" textLength="25.2314" x="233.83" y="593.2366">tbls</text><ellipse cx="224.83" cy="605.9338" fill="none" rx="3" ry="3" style="stroke:#038048;stroke-width:1;"/><text fill="#000000" font-family="sans-serif" font-size="14" lengthAdjust="spacing" textLength="112.8066" x="233.83" y="609.7248">raw_schemas_all</text><ellipse cx="224.83" cy="622.4221" fill="none" rx="3" ry="3" style="stroke:#038048;stroke-width:1;"/><text fill="#000000" font-family="sans-serif" font-size="14" lengthAdjust="spacing" textLength="113.9688" x="233.83" y="626.2131">tidy_schemas_all</text><ellipse cx="224.83" cy="638.9104" fill="none" rx="3" ry="3" style="stroke:#038048;stroke-width:1;"/><text fill="#000000" font-family="sans-serif" font-size="14" lengthAdjust="spacing" textLength="112.7725" x="233.83" y="642.7014">get_tidy_schema</text><ellipse cx="224.83" cy="655.3987" fill="none" rx="3" ry="3" style="stroke:#038048;stroke-width:1;"/><text fill="#000000" font-family="sans-serif" font-size="14" lengthAdjust="spacing" textLength="111.6104" x="233.83" y="659.1897">get_raw_schema</text><ellipse cx="224.83" cy="671.887" fill="none" rx="3" ry="3" style="stroke:#038048;stroke-width:1;"/><text fill="#000000" font-family="sans-serif" font-size="14" lengthAdjust="spacing" textLength="53.2725" x="233.83" y="675.678">files_tbl</text><line style="stroke:#181818;stroke-width:0.5;" x1="214.83" x2="383.3964" y1="682.6311" y2="682.6311"/><ellipse cx="224.83" cy="721.1077" fill="#84BE84" rx="3" ry="3" style="stroke:#038048;stroke-width:1;"/><text fill="#000000" font-family="sans-serif" font-size="14" lengthAdjust="spacing" textLength="103.9883" x="233.83" y="700.1663">initialize(name,</text><text fill="#000000" font-family="sans-serif" font-size="14" lengthAdjust="spacing" textLength="30.1533" x="242.6894" y="716.6545">pkg,</text><text fill="#000000" font-family="sans-serif" font-size="14" lengthAdjust="spacing" textLength="34.8975" x="242.6894" y="733.1428">path,</text><text fill="#000000" font-family="sans-serif" font-size="14" lengthAdjust="spacing" textLength="57.8252" x="242.6894" y="749.6311">files_tbl)</text><ellipse cx="224.83" cy="762.3284" fill="#84BE84" rx="3" ry="3" style="stroke:#038048;stroke-width:1;"/><text fill="#000000" font-family="sans-serif" font-size="14" lengthAdjust="spacing" textLength="54.9063" x="233.83" y="766.1194">print(...)</text><ellipse cx="224.83" cy="787.0608" fill="#84BE84" rx="3" ry="3" style="stroke:#038048;stroke-width:1;"/><text fill="#000000" font-family="sans-serif" font-size="14" lengthAdjust="spacing" textLength="125.4189" x="233.83" y="782.6077">filter_files(include,</text><text fill="#000000" font-family="sans-serif" font-size="14" lengthAdjust="spacing" textLength="57.4561" x="242.6894" y="799.0959">exclude)</text><ellipse cx="224.83" cy="811.7932" fill="#84BE84" rx="3" ry="3" style="stroke:#038048;stroke-width:1;"/><text fill="#000000" font-family="sans-serif" font-size="14" lengthAdjust="spacing" textLength="93.9121" x="233.83" y="815.5842">list_files(type)</text><ellipse cx="224.83" cy="853.0139" fill="#84BE84" rx="3" ry="3" style="stroke:#038048;stroke-width:1;"/><text fill="#000000" font-family="sans-serif" font-size="14" lengthAdjust="spacing" textLength="87.2471" x="233.83" y="832.0725">.parse_file(x,</text><text fill="#000000" font-family="sans-serif" font-size="14" lengthAdjust="spacing" textLength="41.7197" x="242.6894" y="848.5608">name,</text><text fill="#000000" font-family="sans-serif" font-size="14" lengthAdjust="spacing" textLength="42.2051" x="242.6894" y="865.0491">delim,</text><text fill="#000000" font-family="sans-serif" font-size="14" lengthAdjust="spacing" textLength="17.8418" x="242.6894" y="881.5373">...)</text><ellipse cx="224.83" cy="910.7229" fill="#84BE84" rx="3" ry="3" style="stroke:#038048;stroke-width:1;"/><text fill="#000000" font-family="sans-serif" font-size="14" lengthAdjust="spacing" textLength="75.4482" x="233.83" y="898.0256">.tidy_file(x,</text><text fill="#000000" font-family="sans-serif" font-size="14" lengthAdjust="spacing" textLength="41.7197" x="242.6894" y="914.5139">name,</text><text fill="#000000" font-family="sans-serif" font-size="14" lengthAdjust="spacing" textLength="98.3213" x="242.6894" y="931.0022">convert_types)</text><ellipse cx="224.83" cy="968.4319" fill="#84BE84" rx="3" ry="3" style="stroke:#038048;stroke-width:1;"/><text fill="#000000" font-family="sans-serif" font-size="14" lengthAdjust="spacing" textLength="144.5664" x="233.83" y="947.4905">.parse_file_nohead(x,</text><text fill="#000000" font-family="sans-serif" font-size="14" lengthAdjust="spacing" textLength="50.5313" x="242.6894" y="963.9788">pname,</text><text fill="#000000" font-family="sans-serif" font-size="14" lengthAdjust="spacing" textLength="42.2051" x="242.6894" y="980.467">delim,</text><text fill="#000000" font-family="sans-serif" font-size="14" lengthAdjust="spacing" textLength="17.8418" x="242.6894" y="996.9553">...)</text><ellipse cx="224.83" cy="1017.8967" fill="#84BE84" rx="3" ry="3" style="stroke:#038048;stroke-width:1;"/><text fill="#000000" font-family="sans-serif" font-size="14" lengthAdjust="spacing" textLength="99.4561" x="233.83" y="1013.4436">.eval_func(fun,</text><text fill="#000000" font-family="sans-serif" font-size="14" lengthAdjust="spacing" textLength="38.0625" x="242.6894" y="1029.9319">envir)</text><ellipse cx="224.83" cy="1050.8733" fill="#84BE84" rx="3" ry="3" style="stroke:#038048;stroke-width:1;"/><text fill="#000000" font-family="sans-serif" font-size="14" lengthAdjust="spacing" textLength="59.8008" x="233.83" y="1046.4202">tidy(tidy,</text><text fill="#000000" font-family="sans-serif" font-size="14" lengthAdjust="spacing" textLength="68.3936" x="242.6894" y="1062.9084">keep_raw)</text><ellipse cx="224.83" cy="1100.3381" fill="#84BE84" rx="3" ry="3" style="stroke:#038048;stroke-width:1;"/><text fill="#000000" font-family="sans-serif" font-size="14" lengthAdjust="spacing" textLength="69.7676" x="233.83" y="1079.3967">write(odir,</text><text fill="#000000" font-family="sans-serif" font-size="14" lengthAdjust="spacing" textLength="49.9434" x="242.6894" y="1095.885">format,</text><text fill="#000000" font-family="sans-serif" font-size="14" lengthAdjust="spacing" textLength="17.2881" x="242.6894" y="1112.3733">id,</text><text fill="#000000" font-family="sans-serif" font-size="14" lengthAdjust="spacing" textLength="55.3232" x="242.6894" y="1128.8616">dbconn)</text><ellipse cx="224.83" cy="1182.7795" fill="#84BE84" rx="3" ry="3" style="stroke:#038048;stroke-width:1;"/><text fill="#000000" font-family="sans-serif" font-size="14" lengthAdjust="spacing" textLength="86.7891" x="233.83" y="1145.3498">nemofy(odir,</text><text fill="#000000" font-family="sans-serif" font-size="14" lengthAdjust="spacing" textLength="49.9434" x="242.6894" y="1161.8381">format,</text><text fill="#000000" font-family="sans-serif" font-size="14" lengthAdjust="spacing" textLength="17.2881" x="242.6894" y="1178.3264">id,</text><text fill="#000000" font-family="sans-serif" font-size="14" lengthAdjust="spacing" textLength="55.2002" x="242.6894" y="1194.8147">dbconn,</text><text fill="#000000" font-family="sans-serif" font-size="14" lengthAdjust="spacing" textLength="53.6826" x="242.6894" y="1211.303">include,</text><text fill="#000000" font-family="sans-serif" font-size="14" lengthAdjust="spacing" textLength="57.4561" x="242.6894" y="1227.7913">exclude)</text><ellipse cx="224.83" cy="1240.4885" fill="#84BE84" rx="3" ry="3" style="stroke:#038048;stroke-width:1;"/><text fill="#000000" font-family="sans-serif" font-size="14" lengthAdjust="spacing" textLength="78.6338" x="233.83" y="1244.2795">clone(deep)</text></g><!--class Tool1--><g class="entity" data-entity="Tool1" data-source-line="48" data-uid="ent0004" id="entity_Tool1"><rect fill="#F1F1F1" height="196.3945" rx="2.5" ry="2.5" style="stroke:#181818;stroke-width:0.5;" width="130.3779" x="233.93" y="105.93"/><ellipse cx="275.672" cy="121.93" fill="#ADD1B2" rx="11" ry="11" style="stroke:#181818;stroke-width:1;"/><path d="M278.1452,128.0731 Q277.5641,128.3719 276.925,128.5213 Q276.2858,128.6707 275.5802,128.6707 Q273.0734,128.6707 271.7536,127.0189 Q270.4338,125.367 270.4338,122.2459 Q270.4338,119.1165 271.7536,117.4647 Q273.0734,115.8128 275.5802,115.8128 Q276.2858,115.8128 276.9333,115.9622 Q277.5807,116.1116 278.1452,116.4105 L278.1452,119.1331 Q277.5143,118.5521 276.9208,118.2823 Q276.3273,118.0125 275.6965,118.0125 Q274.3517,118.0125 273.6669,119.0792 Q272.9821,120.1458 272.9821,122.2459 Q272.9821,124.3377 273.6669,125.4044 Q274.3517,126.471 275.6965,126.471 Q276.3273,126.471 276.9208,126.2012 Q277.5143,125.9315 278.1452,125.3504 Z " fill="#000000"/><text fill="#000000" font-family="sans-serif" font-size="14" lengthAdjust="spacing" textLength="38.9512" x="295.6147" y="127.221">Tool1</text><line style="stroke:#181818;stroke-width:0.5;" x1="234.93" x2="363.3079" y1="137.93" y2="137.93"/><line style="stroke:#181818;stroke-width:0.5;" x1="234.93" x2="363.3079" y1="145.93" y2="145.93"/><ellipse cx="244.93" cy="167.9183" fill="#84BE84" rx="3" ry="3" style="stroke:#038048;stroke-width:1;"/><text fill="#000000" font-family="sans-serif" font-size="14" lengthAdjust="spacing" textLength="97.166" x="253.93" y="163.4652">initialize(path,</text><text fill="#000000" font-family="sans-serif" font-size="14" lengthAdjust="spacing" textLength="57.8252" x="262.7894" y="179.9534">files_tbl)</text><ellipse cx="244.93" cy="192.6507" fill="#84BE84" rx="3" ry="3" style="stroke:#038048;stroke-width:1;"/><text fill="#000000" font-family="sans-serif" font-size="14" lengthAdjust="spacing" textLength="104.3779" x="253.93" y="196.4417">parse_table1(x)</text><ellipse cx="244.93" cy="209.139" fill="#84BE84" rx="3" ry="3" style="stroke:#038048;stroke-width:1;"/><text fill="#000000" font-family="sans-serif" font-size="14" lengthAdjust="spacing" textLength="92.5791" x="253.93" y="212.93">tidy_table1(x)</text><ellipse cx="244.93" cy="225.6273" fill="#84BE84" rx="3" ry="3" style="stroke:#038048;stroke-width:1;"/><text fill="#000000" font-family="sans-serif" font-size="14" lengthAdjust="spacing" textLength="104.3779" x="253.93" y="229.4183">parse_table2(x)</text><ellipse cx="244.93" cy="242.1155" fill="#84BE84" rx="3" ry="3" style="stroke:#038048;stroke-width:1;"/><text fill="#000000" font-family="sans-serif" font-size="14" lengthAdjust="spacing" textLength="92.5791" x="253.93" y="245.9066">tidy_table2(x)</text><ellipse cx="244.93" cy="258.6038" fill="#84BE84" rx="3" ry="3" style="stroke:#038048;stroke-width:1;"/><text fill="#000000" font-family="sans-serif" font-size="14" lengthAdjust="spacing" textLength="104.3779" x="253.93" y="262.3948">parse_table3(x)</text><ellipse cx="244.93" cy="275.0921" fill="#84BE84" rx="3" ry="3" style="stroke:#038048;stroke-width:1;"/><text fill="#000000" font-family="sans-serif" font-size="14" lengthAdjust="spacing" textLength="92.5791" x="253.93" y="278.8831">tidy_table3(x)</text><ellipse cx="244.93" cy="291.5804" fill="#84BE84" rx="3" ry="3" style="stroke:#038048;stroke-width:1;"/><text fill="#000000" font-family="sans-serif" font-size="14" lengthAdjust="spacing" textLength="78.6338" x="253.93" y="295.3714">clone(deep)</text></g><!--class Workflow--><g class="entity" data-entity="Workflow" data-source-line="59" data-uid="ent0005" id="entity_Workflow"><rect fill="#F1F1F1" height="509.6719" rx="2.5" ry="2.5" style="stroke:#181818;stroke-width:0.5;" width="177.8398" x="419.19" y="601.41"/><ellipse cx="472.3257" cy="617.41" fill="#ADD1B2" rx="11" ry="11" style="stroke:#181818;stroke-width:1;"/><path d="M474.7989,623.5531 Q474.2178,623.8519 473.5787,624.0013 Q472.9395,624.1507 472.2339,624.1507 Q469.7271,624.1507 468.4073,622.4989 Q467.0875,620.847 467.0875,617.7259 Q467.0875,614.5965 468.4073,612.9447 Q469.7271,611.2928 472.2339,611.2928 Q472.9395,611.2928 473.587,611.4422 Q474.2344,611.5916 474.7989,611.8905 L474.7989,614.6131 Q474.168,614.0321 473.5745,613.7623 Q472.981,613.4925 472.3502,613.4925 Q471.0054,613.4925 470.3206,614.5592 Q469.6358,615.6258 469.6358,617.7259 Q469.6358,619.8177 470.3206,620.8844 Q471.0054,621.951 472.3502,621.951 Q472.981,621.951 473.5745,621.6812 Q474.168,621.4115 474.7989,620.8304 Z " fill="#000000"/><text fill="#000000" font-family="sans-serif" font-size="14" lengthAdjust="spacing" textLength="63.0684" x="492.8257" y="622.701">Workflow</text><line style="stroke:#181818;stroke-width:0.5;" x1="420.19" x2="596.0298" y1="633.41" y2="633.41"/><ellipse cx="430.19" cy="647.1541" fill="none" rx="3" ry="3" style="stroke:#038048;stroke-width:1;"/><text fill="#000000" font-family="sans-serif" font-size="14" lengthAdjust="spacing" textLength="37.29" x="439.19" y="650.9452">name</text><ellipse cx="430.19" cy="663.6424" fill="none" rx="3" ry="3" style="stroke:#038048;stroke-width:1;"/><text fill="#000000" font-family="sans-serif" font-size="14" lengthAdjust="spacing" textLength="30.4678" x="439.19" y="667.4334">path</text><ellipse cx="430.19" cy="680.1307" fill="none" rx="3" ry="3" style="stroke:#038048;stroke-width:1;"/><text fill="#000000" font-family="sans-serif" font-size="14" lengthAdjust="spacing" textLength="33.6191" x="439.19" y="683.9217">tools</text><ellipse cx="430.19" cy="696.619" fill="none" rx="3" ry="3" style="stroke:#038048;stroke-width:1;"/><text fill="#000000" font-family="sans-serif" font-size="14" lengthAdjust="spacing" textLength="53.2725" x="439.19" y="700.41">files_tbl</text><line style="stroke:#181818;stroke-width:0.5;" x1="420.19" x2="596.0298" y1="707.3631" y2="707.3631"/><rect fill="#F24D5C" height="6" style="stroke:#C82930;stroke-width:1;" width="6" x="427.19" y="718.1073"/><text fill="#000000" font-family="sans-serif" font-size="14" lengthAdjust="spacing" textLength="110.9609" x="439.19" y="724.8983">validate_tools(x)</text><ellipse cx="430.19" cy="754.0838" fill="#84BE84" rx="3" ry="3" style="stroke:#038048;stroke-width:1;"/><text fill="#000000" font-family="sans-serif" font-size="14" lengthAdjust="spacing" textLength="103.9883" x="439.19" y="741.3866">initialize(name,</text><text fill="#000000" font-family="sans-serif" font-size="14" lengthAdjust="spacing" textLength="34.8975" x="448.0494" y="757.8748">path,</text><text fill="#000000" font-family="sans-serif" font-size="14" lengthAdjust="spacing" textLength="38.1719" x="448.0494" y="774.3631">tools)</text><ellipse cx="430.19" cy="787.0604" fill="#84BE84" rx="3" ry="3" style="stroke:#038048;stroke-width:1;"/><text fill="#000000" font-family="sans-serif" font-size="14" lengthAdjust="spacing" textLength="54.9063" x="439.19" y="790.8514">print(...)</text><ellipse cx="430.19" cy="811.7928" fill="#84BE84" rx="3" ry="3" style="stroke:#038048;stroke-width:1;"/><text fill="#000000" font-family="sans-serif" font-size="14" lengthAdjust="spacing" textLength="125.4189" x="439.19" y="807.3397">filter_files(include,</text><text fill="#000000" font-family="sans-serif" font-size="14" lengthAdjust="spacing" textLength="57.4561" x="448.0494" y="823.828">exclude)</text><ellipse cx="430.19" cy="836.5252" fill="#84BE84" rx="3" ry="3" style="stroke:#038048;stroke-width:1;"/><text fill="#000000" font-family="sans-serif" font-size="14" lengthAdjust="spacing" textLength="93.9121" x="439.19" y="840.3163">list_files(type)</text><ellipse cx="430.19" cy="861.2577" fill="#84BE84" rx="3" ry="3" style="stroke:#038048;stroke-width:1;"/><text fill="#000000" font-family="sans-serif" font-size="14" lengthAdjust="spacing" textLength="59.8008" x="439.19" y="856.8045">tidy(tidy,</text><text fill="#000000" font-family="sans-serif" font-size="14" lengthAdjust="spacing" textLength="68.3936" x="448.0494" y="873.2928">keep_raw)</text><ellipse cx="430.19" cy="910.7225" fill="#84BE84" rx="3" ry="3" style="stroke:#038048;stroke-width:1;"/><text fill="#000000" font-family="sans-serif" font-size="14" lengthAdjust="spacing" textLength="69.7676" x="439.19" y="889.7811">write(odir,</text><text fill="#000000" font-family="sans-serif" font-size="14" lengthAdjust="spacing" textLength="49.9434" x="448.0494" y="906.2694">format,</text><text fill="#000000" font-family="sans-serif" font-size="14" lengthAdjust="spacing" textLength="17.2881" x="448.0494" y="922.7577">id,</text><text fill="#000000" font-family="sans-serif" font-size="14" lengthAdjust="spacing" textLength="55.3232" x="448.0494" y="939.2459">dbconn)</text><ellipse cx="430.19" cy="993.1639" fill="#84BE84" rx="3" ry="3" style="stroke:#038048;stroke-width:1;"/><text fill="#000000" font-family="sans-serif" font-size="14" lengthAdjust="spacing" textLength="86.7891" x="439.19" y="955.7342">nemofy(odir,</text><text fill="#000000" font-family="sans-serif" font-size="14" lengthAdjust="spacing" textLength="49.9434" x="448.0494" y="972.2225">format,</text><text fill="#000000" font-family="sans-serif" font-size="14" lengthAdjust="spacing" textLength="17.2881" x="448.0494" y="988.7108">id,</text><text fill="#000000" font-family="sans-serif" font-size="14" lengthAdjust="spacing" textLength="55.2002" x="448.0494" y="1005.1991">dbconn,</text><text fill="#000000" font-family="sans-serif" font-size="14" lengthAdjust="spacing" textLength="53.6826" x="448.0494" y="1021.6873">include,</text><text fill="#000000" font-family="sans-serif" font-size="14" lengthAdjust="spacing" textLength="57.4561" x="448.0494" y="1038.1756">exclude)</text><ellipse cx="430.19" cy="1050.8729" fill="#84BE84" rx="3" ry="3" style="stroke:#038048;stroke-width:1;"/><text fill="#000000" font-family="sans-serif" font-size="14" lengthAdjust="spacing" textLength="150.6777" x="439.19" y="1054.6639">get_raw_schemas_all()</text><ellipse cx="430.19" cy="1067.3612" fill="#84BE84" rx="3" ry="3" style="stroke:#038048;stroke-width:1;"/><text fill="#000000" font-family="sans-serif" font-size="14" lengthAdjust="spacing" textLength="151.8398" x="439.19" y="1071.1522">get_tidy_schemas_all()</text><ellipse cx="430.19" cy="1083.8495" fill="#84BE84" rx="3" ry="3" style="stroke:#038048;stroke-width:1;"/><text fill="#000000" font-family="sans-serif" font-size="14" lengthAdjust="spacing" textLength="63.1025" x="439.19" y="1087.6405">get_tbls()</text><ellipse cx="430.19" cy="1100.3377" fill="#84BE84" rx="3" ry="3" style="stroke:#038048;stroke-width:1;"/><text fill="#000000" font-family="sans-serif" font-size="14" lengthAdjust="spacing" textLength="78.6338" x="439.19" y="1104.1287">clone(deep)</text></g><!--class Workflow1--><g class="entity" data-entity="Workflow1" data-source-line="78" data-uid="ent0006" id="entity_Workflow1"><rect fill="#F1F1F1" height="80.9766" rx="2.5" ry="2.5" style="stroke:#181818;stroke-width:0.5;" width="123.2891" x="446.47" y="163.64"/><ellipse cx="470.1857" cy="179.64" fill="#ADD1B2" rx="11" ry="11" style="stroke:#181818;stroke-width:1;"/><path d="M472.6588,185.7831 Q472.0778,186.0819 471.4386,186.2313 Q470.7994,186.3807 470.0939,186.3807 Q467.587,186.3807 466.2672,184.7289 Q464.9474,183.077 464.9474,179.9559 Q464.9474,176.8265 466.2672,175.1747 Q467.587,173.5228 470.0939,173.5228 Q470.7994,173.5228 471.4469,173.6722 Q472.0944,173.8216 472.6588,174.1205 L472.6588,176.8431 Q472.028,176.2621 471.4345,175.9923 Q470.8409,175.7225 470.2101,175.7225 Q468.8654,175.7225 468.1805,176.7892 Q467.4957,177.8558 467.4957,179.9559 Q467.4957,182.0477 468.1805,183.1144 Q468.8654,184.181 470.2101,184.181 Q470.8409,184.181 471.4345,183.9112 Q472.028,183.6415 472.6588,183.0604 Z " fill="#000000"/><text fill="#000000" font-family="sans-serif" font-size="14" lengthAdjust="spacing" textLength="71.9209" x="486.1225" y="184.931">Workflow1</text><line style="stroke:#181818;stroke-width:0.5;" x1="447.47" x2="568.7591" y1="195.64" y2="195.64"/><line style="stroke:#181818;stroke-width:0.5;" x1="447.47" x2="568.7591" y1="203.64" y2="203.64"/><ellipse cx="457.47" cy="217.3841" fill="#84BE84" rx="3" ry="3" style="stroke:#038048;stroke-width:1;"/><text fill="#000000" font-family="sans-serif" font-size="14" lengthAdjust="spacing" textLength="97.2891" x="466.47" y="221.1752">initialize(path)</text><ellipse cx="457.47" cy="233.8724" fill="#84BE84" rx="3" ry="3" style="stroke:#038048;stroke-width:1;"/><text fill="#000000" font-family="sans-serif" font-size="14" lengthAdjust="spacing" textLength="78.6338" x="466.47" y="237.6634">clone(deep)</text></g><!--reverse link Tool1 to Tool--><g class="link" data-entity-1="Tool1" data-entity-2="Tool" data-source-line="82" data-uid="lnk7" id="link_Tool1_Tool"><path codeLine="82" d="M299.11,320.81 C299.11,365.03 299.11,402.5 299.11,461.11" fill="none" id="Tool1-backto-Tool" style="stroke:#181818;stroke-width:1;"/><polygon fill="none" points="299.11,302.81,293.11,320.81,305.11,320.81,299.11,302.81" style="stroke:#181818;stroke-width:1;"/></g><!--reverse link Workflow1 to Workflow--><g class="link" data-entity-1="Workflow1" data-entity-2="Workflow" data-source-line="83" data-uid="lnk8" id="link_Workflow1_Workflow"><path codeLine="83" d="M508.11,262.82 C508.11,333.05 508.11,466.51 508.11,600.98" fill="none" id="Workflow1-backto-Workflow" style="stroke:#181818;stroke-width:1;"/><polygon fill="none" points="508.11,244.82,502.11,262.82,514.11,262.82,508.11,244.82" style="stroke:#181818;stroke-width:1;"/></g><!--SRC=[pLJ9JiCm4BtdAtfqLHe9k7BZ5v2u84LEF6b7TUp8TZUMVsSyRjeafC210nV7VdwplPcuqjBxsQCrDQvcRzaYMAkpHSNdRE7all3L6Xhf2wdf8g0w3X4q651gV0KHRMzUp6pMRbRpRD4wD47aUKvx1rA91AyW5D5lAqC0PxpeOJjm7kqGK-0hXsqOuxqiliBYm8diw48w6F1tbApgBBYUgGZZGYVmBWQlVbk6KXEfqjQ0K03jFFl8iehrVI9bIDsb0L2UVQ0XUOriW7IIONsHl4ODdeGkjV-L_gEanaAS71RaRz2h6BhhLVfI5hmvyqSj99pwLV2rG5FfhKeUuC1xecZquKG8npOYUIkT1yPESfq3Az3Oy2xvpxcAAIP9GuD1PP9FFtHQ6BkEevKisklEWTfUr5jJ2LfIscQ7Rfua5N5XT4EDY_BHnTvX064LkgIBTOqCl4MLWfIKcI6cWSRMnv-f2PcKxkhOtCQ_ijUuwJwn846M6cx5uLHK_zmZt8q8TsF2_OYGpfC9FbktgRNTnnpxmnnV0jyVlIN_TJ9GY7Z57YUdiQkEQNynWV-ZlTyyMbTV6de1n4_2Jqt75viqHW_looLFL7OnPgmxVW80]--></g></svg>